<svg width="89" height="88" viewBox="0 0 89 88" fill="none" xmlns="http://www.w3.org/2000/svg">
<g clip-path="url(#clip0_70_103)">
<path d="M2.54763 43.9622L26.7 38.4931L14.0064 50.2992C12.6046 52.0317 13.5975 54.9931 15.5792 54.9931H46.5484C45.2356 50.4556 44.5 45.6311 44.5 40.6622V33.397L27.85 18.3408C24.5376 15.6114 20.1613 15.9328 17.1339 19.1297L0.807953 39.1256C-0.913641 40.9011 0.328187 44.3541 2.54763 43.9622V43.9622ZM79.9874 49.8231L65.9893 41.1761C64.8809 40.4911 63.9486 39.4382 63.297 38.1353C62.6454 36.8324 62.3002 35.3309 62.3 33.7992V27.4931H71.2L75.1063 31.3827C75.9406 32.4139 77.0726 32.9931 78.2533 32.9931H82.56C83.3864 32.9931 84.1965 32.7086 84.8994 32.1716C85.6024 31.6346 86.1704 30.8662 86.54 29.9527L88.53 25.0336C88.8995 24.12 89.0559 23.0974 88.9817 22.0801C88.9076 21.0629 88.6057 20.0913 88.11 19.2741L77.7457 2.19313C76.9043 0.807812 75.586 0 74.1857 0H41.1653C40.1738 0 39.6773 1.47297 40.3782 2.33922L48.95 10.9931L40.6647 15.2625C39.8442 15.7695 39.8442 17.215 40.6647 17.722L48.95 21.9931V40.6622C48.95 53.0509 53.9604 64.6198 62.3 71.4931C35.1008 72.6636 14.3846 78.5417 1.93297 81.962C0.803781 82.2714 0 83.5106 0 84.9406C0 86.625 1.10555 88 2.46975 88H71.8731C80.6743 88.0017 88.5063 79.8256 88.9764 68.9631C89.3268 60.8369 85.8155 53.4256 79.9874 49.8231ZM68.0266 11.3867L74.3748 13.3478C73.9924 15.223 72.6407 16.5945 71.0192 16.4862C69.217 16.3642 67.4245 14.3327 68.0266 11.3867V11.3867Z" fill="url(#paint0_linear_70_103)"/>
</g>
<defs>
<linearGradient id="paint0_linear_70_103" x1="44.5002" y1="0" x2="44.5002" y2="88" gradientUnits="userSpaceOnUse">
<stop stop-color="#E615DE"/>
<stop offset="0.208333" stop-color="#8F2EB1" stop-opacity="0.86"/>
<stop offset="0.489583" stop-color="#1BA6F3" stop-opacity="0.79"/>
<stop offset="0.75" stop-color="#197BC1" stop-opacity="0.88"/>
<stop offset="1" stop-color="#0E3DE2" stop-opacity="0.88"/>
</linearGradient>
<clipPath id="clip0_70_103">
<rect width="89" height="88" fill="white"/>
</clipPath>
</defs>
</svg>
